<svg id="eWHNOqMYAVz1" xmlns="http://www.w3.org/2000/svg" xmlns:xlink="http://www.w3.org/1999/xlink" viewBox="0 0 225 310" shape-rendering="geometricPrecision" text-rendering="geometricPrecision"><g><path d="M87.5,205c-13.80712,0-25-11.19288-25-25v-50c0-13.80712,11.19288-25,25-25h50c13.80712,0,25,11.19288,25,25v50c0,13.80712-11.19288,25-25,25h-50Zm41-15c10.49341,0,19-8.50659,19-19v-32c0-10.49341-8.50659-19-19-19h-32c-10.49341,0-19,8.50659-19,19v32c0,10.49341,8.50659,19,19,19h32Z" fill="#323232"/><line x1="-35" y1="-35" x2="35" y2="35" transform="translate(112 155)" fill="none" stroke="#323232" stroke-width="10"/></g><g transform="translate(2.5 0)"><g transform="translate(1.4226 3.485107)"><line x1="0" y1="0" x2="0" y2="-20" transform="translate(68.577402 236.514898)" fill="none" stroke="#323232" stroke-width="5" stroke-linecap="round" stroke-linejoin="round"/><line x1="0" y1="0" x2="0" y2="-20" transform="matrix(0 1-1 0 68.577402 236.514898)" fill="none" stroke="#323232" stroke-width="5" stroke-linecap="round" stroke-linejoin="round"/><line x1="0" y1="10" x2="0" y2="-10" transform="translate(78.58 236.51)" fill="none" stroke="#323232" stroke-width="5" stroke-linecap="round" stroke-linejoin="round"/></g><g transform="translate(61.4226 3.485107)"><line x1="0" y1="0" x2="0" y2="-20" transform="translate(68.577402 236.514898)" fill="none" stroke="#323232" stroke-width="5" stroke-linecap="round" stroke-linejoin="round"/><line x1="0" y1="0" x2="0" y2="-20" transform="matrix(0 1-1 0 68.577402 236.514898)" fill="none" stroke="#323232" stroke-width="5" stroke-linecap="round" stroke-linejoin="round"/><line x1="0" y1="10" x2="0" y2="-10" transform="translate(78.58 236.51)" fill="none" stroke="#323232" stroke-width="5" stroke-linecap="round" stroke-linejoin="round"/></g><rect width="15" height="30" rx="5" ry="5" transform="translate(100 220)" fill="none" stroke="#323232" stroke-width="5"/></g></svg>